<svg xmlns="http://www.w3.org/2000/svg" width="1200" height="630" viewBox="0 0 1200 630" fill="none">
  <defs>
    <linearGradient id="bg" x1="134" y1="74" x2="1061" y2="582" gradientUnits="userSpaceOnUse">
      <stop stop-color="#132030"/>
      <stop offset="1" stop-color="#251A18"/>
    </linearGradient>
    <radialGradient id="glowA" cx="0" cy="0" r="1" gradientUnits="userSpaceOnUse" gradientTransform="translate(254 117) rotate(35.7) scale(433 281)">
      <stop stop-color="#94D8FF" stop-opacity=".42"/>
      <stop offset="1" stop-color="#94D8FF" stop-opacity="0"/>
    </radialGradient>
    <radialGradient id="glowB" cx="0" cy="0" r="1" gradientUnits="userSpaceOnUse" gradientTransform="translate(964 531) rotate(-145.8) scale(473 293)">
      <stop stop-color="#E7B88A" stop-opacity=".38"/>
      <stop offset="1" stop-color="#E7B88A" stop-opacity="0"/>
    </radialGradient>
    <linearGradient id="card" x1="188" y1="120" x2="1009" y2="514" gradientUnits="userSpaceOnUse">
      <stop stop-color="rgba(255,255,255,.16)"/>
      <stop offset="1" stop-color="rgba(255,255,255,.07)"/>
    </linearGradient>
  </defs>

  <rect width="1200" height="630" rx="32" fill="url(#bg)"/>
  <rect width="1200" height="630" rx="32" fill="url(#glowA)"/>
  <rect width="1200" height="630" rx="32" fill="url(#glowB)"/>

  <rect x="64" y="56" width="1072" height="518" rx="30" fill="rgba(255,255,255,0.06)" stroke="rgba(255,255,255,0.12)"/>
  <rect x="88" y="82" width="1024" height="466" rx="28" fill="url(#card)" stroke="rgba(255,255,255,0.1)"/>

  <g opacity=".84">
    <path d="M937 442c-37-67-71-156-100-268h-11c-29 113-64 202-102 268h37c11-29 20-60 29-92h81c10 32 20 63 31 92h35Zm-110-121 25-81c5-18 10-35 15-54h2c5 19 10 36 16 55l25 80h-83Z" fill="#FFF8F1"/>
  </g>

  <text x="136" y="176" fill="#F5EDE3" font-family="Georgia, 'Times New Roman', serif" font-size="28" letter-spacing="5">PARIS FOR TWO</text>
  <text x="136" y="270" fill="#FFF9F1" font-family="Georgia, 'Times New Roman', serif" font-size="70" font-weight="700">Париж</text>
  <text x="136" y="340" fill="#FFF9F1" font-family="Georgia, 'Times New Roman', serif" font-size="70" font-weight="700">23 апреля — 1 мая 2026</text>
  <text x="136" y="408" fill="#D8D0C7" font-family="'Trebuchet MS', Arial, sans-serif" font-size="31">Личный гид: прогулки, музеи, кофе, шопинг, Версаль</text>
  <text x="136" y="452" fill="#D8D0C7" font-family="'Trebuchet MS', Arial, sans-serif" font-size="31">и спокойный красивый ритм поездки для двоих</text>

  <g>
    <rect x="136" y="488" width="185" height="40" rx="20" fill="rgba(148,216,255,.16)" stroke="rgba(148,216,255,.32)"/>
    <text x="164" y="514" fill="#EAF8FF" font-family="'Trebuchet MS', Arial, sans-serif" font-size="21">Лувр · Dior</text>
    <rect x="334" y="488" width="154" height="40" rx="20" fill="rgba(231,184,138,.14)" stroke="rgba(231,184,138,.3)"/>
    <text x="364" y="514" fill="#FFF1E6" font-family="'Trebuchet MS', Arial, sans-serif" font-size="21">Версаль</text>
    <rect x="502" y="488" width="227" height="40" rx="20" fill="rgba(255,255,255,.08)" stroke="rgba(255,255,255,.18)"/>
    <text x="530" y="514" fill="#FFF9F1" font-family="'Trebuchet MS', Arial, sans-serif" font-size="21">Кофе · прогулки · Сена</text>
  </g>
</svg>
